<?xml version="1.0" encoding="UTF-8"?>
<svg xmlns="http://www.w3.org/2000/svg" version="1.1" width="600.0" height="408.00000000000006" viewBox="-500.0 -500.0 2000.0 1360.0">
  <text x="-490.0" y="-480.0" font-family="monospace" font-size="48.37" fill="#999999">SAMPLED — flatness_fraction=0.005, 24 pts across 4 edges</text>
  <path d="M484.000,0.000 L500.000,-9.600 L516.000,0.000" fill="none" stroke="#555555" stroke-width="9.600"/>
  <path d="M450.000,120.000 L475.000,97.500 L500.000,90.000 L525.000,97.500 L550.000,120.000" fill="none" stroke="#555555" stroke-width="9.600"/>
  <path d="M340.000,240.000 L420.000,168.000 L460.000,150.000 L500.000,144.000 L540.000,150.000 L580.000,168.000 L660.000,240.000" fill="none" stroke="#555555" stroke-width="9.600"/>
  <path d="M0.000,360.000 L125.000,228.750 L250.000,135.000 L375.000,78.750 L500.000,60.000 L625.000,78.750 L750.000,135.000 L875.000,228.750 L1000.000,360.000" fill="none" stroke="#555555" stroke-width="9.600"/>
  <circle cx="500.000" cy="-9.600" r="8.400" fill="#e74c3c" stroke="none"/>
  <circle cx="475.000" cy="97.500" r="8.400" fill="#e74c3c" stroke="none"/>
  <circle cx="500.000" cy="90.000" r="8.400" fill="#e74c3c" stroke="none"/>
  <circle cx="525.000" cy="97.500" r="8.400" fill="#e74c3c" stroke="none"/>
  <circle cx="420.000" cy="168.000" r="8.400" fill="#e74c3c" stroke="none"/>
  <circle cx="460.000" cy="150.000" r="8.400" fill="#e74c3c" stroke="none"/>
  <circle cx="500.000" cy="144.000" r="8.400" fill="#e74c3c" stroke="none"/>
  <circle cx="540.000" cy="150.000" r="8.400" fill="#e74c3c" stroke="none"/>
  <circle cx="580.000" cy="168.000" r="8.400" fill="#e74c3c" stroke="none"/>
  <circle cx="125.000" cy="228.750" r="8.400" fill="#e74c3c" stroke="none"/>
  <circle cx="250.000" cy="135.000" r="8.400" fill="#e74c3c" stroke="none"/>
  <circle cx="375.000" cy="78.750" r="8.400" fill="#e74c3c" stroke="none"/>
  <circle cx="500.000" cy="60.000" r="8.400" fill="#e74c3c" stroke="none"/>
  <circle cx="625.000" cy="78.750" r="8.400" fill="#e74c3c" stroke="none"/>
  <circle cx="750.000" cy="135.000" r="8.400" fill="#e74c3c" stroke="none"/>
  <circle cx="875.000" cy="228.750" r="8.400" fill="#e74c3c" stroke="none"/>
  <circle cx="484.000" cy="0.000" r="24.000" fill="#ffffff" stroke="#000000" stroke-width="6.000"/>
  <circle cx="516.000" cy="0.000" r="24.000" fill="#ffffff" stroke="#000000" stroke-width="6.000"/>
  <circle cx="450.000" cy="120.000" r="24.000" fill="#ffffff" stroke="#000000" stroke-width="6.000"/>
  <circle cx="550.000" cy="120.000" r="24.000" fill="#ffffff" stroke="#000000" stroke-width="6.000"/>
  <circle cx="340.000" cy="240.000" r="24.000" fill="#ffffff" stroke="#000000" stroke-width="6.000"/>
  <circle cx="660.000" cy="240.000" r="24.000" fill="#ffffff" stroke="#000000" stroke-width="6.000"/>
  <circle cx="0.000" cy="360.000" r="24.000" fill="#ffffff" stroke="#000000" stroke-width="6.000"/>
  <circle cx="1000.000" cy="360.000" r="24.000" fill="#ffffff" stroke="#000000" stroke-width="6.000"/>
</svg>
