<?xml version="1.0" encoding="UTF-8"?>
<svg xmlns="http://www.w3.org/2000/svg" version="1.1" width="600.0" height="300.0" viewBox="-150000.0 -150000.0 600000.0 300000.0">
  <text x="-149990.0" y="-134302.80279795147" font-family="monospace" font-size="12074.77" fill="#555555">scale=1e3  26 pts</text>
  <text x="-149990.0" y="-117398.12888805306" font-family="monospace" font-size="9056.08" fill="#999999">EO=0.606268  EC=1.000000  NEO=1.000000</text>
  <path d="M0,0 L30000,0 L37500,-16875 L45000,-22500 L52500,-16875 L60000,0 L90000,0 L94609.375,-13535.15625 L100625,-15468.75 L115000,0 L129375,15468.75 L135390.625,13535.15625 L140000,0 L170000,0 L177500,7500 L185000,10000 L192500,7500 L200000,0 L230000,0 L234179.6875,-4429.6875 L239062.5,-5062.5 L250000,0 L260937.5,5062.5 L265820.3125,4429.6875 L270000,0 L300000,0" fill="none" stroke="#555555" stroke-width="2880"/>
  <circle cx="30000" cy="0" r="2520" fill="#e74c3c" stroke="none"/>
  <circle cx="37500" cy="-16875" r="2520" fill="#e74c3c" stroke="none"/>
  <circle cx="45000" cy="-22500" r="2520" fill="#e74c3c" stroke="none"/>
  <circle cx="52500" cy="-16875" r="2520" fill="#e74c3c" stroke="none"/>
  <circle cx="60000" cy="0" r="2520" fill="#e74c3c" stroke="none"/>
  <circle cx="90000" cy="0" r="2520" fill="#e74c3c" stroke="none"/>
  <circle cx="94609.375" cy="-13535.15625" r="2520" fill="#e74c3c" stroke="none"/>
  <circle cx="100625" cy="-15468.75" r="2520" fill="#e74c3c" stroke="none"/>
  <circle cx="115000" cy="0" r="2520" fill="#e74c3c" stroke="none"/>
  <circle cx="129375" cy="15468.75" r="2520" fill="#e74c3c" stroke="none"/>
  <circle cx="135390.625" cy="13535.15625" r="2520" fill="#e74c3c" stroke="none"/>
  <circle cx="140000" cy="0" r="2520" fill="#e74c3c" stroke="none"/>
  <circle cx="170000" cy="0" r="2520" fill="#e74c3c" stroke="none"/>
  <circle cx="177500" cy="7500" r="2520" fill="#e74c3c" stroke="none"/>
  <circle cx="185000" cy="10000" r="2520" fill="#e74c3c" stroke="none"/>
  <circle cx="192500" cy="7500" r="2520" fill="#e74c3c" stroke="none"/>
  <circle cx="200000" cy="0" r="2520" fill="#e74c3c" stroke="none"/>
  <circle cx="230000" cy="0" r="2520" fill="#e74c3c" stroke="none"/>
  <circle cx="234179.6875" cy="-4429.6875" r="2520" fill="#e74c3c" stroke="none"/>
  <circle cx="239062.5" cy="-5062.5" r="2520" fill="#e74c3c" stroke="none"/>
  <circle cx="250000" cy="0" r="2520" fill="#e74c3c" stroke="none"/>
  <circle cx="260937.5" cy="5062.5" r="2520" fill="#e74c3c" stroke="none"/>
  <circle cx="265820.3125" cy="4429.6875" r="2520" fill="#e74c3c" stroke="none"/>
  <circle cx="270000" cy="0" r="2520" fill="#e74c3c" stroke="none"/>
  <circle cx="0.000" cy="0.000" r="7200.000" fill="#ffffff" stroke="#000000" stroke-width="1800.000"/>
  <circle cx="300000.000" cy="0.000" r="7200.000" fill="#ffffff" stroke="#000000" stroke-width="1800.000"/>
</svg>
