<?xml version="1.0" encoding="UTF-8"?>
<svg xmlns="http://www.w3.org/2000/svg" version="1.1" width="600.0" height="300.0" viewBox="-150.0 -150.0 600.0 300.0">
  <text x="-140.0" y="-134.30280279795147" font-family="monospace" font-size="12.07" fill="#555555">scale=1  26 pts</text>
  <text x="-140.0" y="-117.39812888805307" font-family="monospace" font-size="9.06" fill="#999999">EO=0.606268  EC=1.000000  NEO=1.000000</text>
  <path d="M0,0 L30,0 L37.5,-16.875 L45,-22.5 L52.5,-16.875 L60,0 L90,0 L94.609375,-13.53515625 L100.625,-15.46875 L115,0 L129.375,15.46875 L135.390625,13.53515625 L140,0 L170,0 L177.5,7.5 L185,10 L192.5,7.5 L200,0 L230,0 L234.1796875,-4.4296875 L239.0625,-5.0625 L250,0 L260.9375,5.0625 L265.8203125,4.4296875 L270,0 L300,0" fill="none" stroke="#555555" stroke-width="2.88"/>
  <circle cx="30" cy="0" r="2.52" fill="#e74c3c" stroke="none"/>
  <circle cx="37.5" cy="-16.875" r="2.52" fill="#e74c3c" stroke="none"/>
  <circle cx="45" cy="-22.5" r="2.52" fill="#e74c3c" stroke="none"/>
  <circle cx="52.5" cy="-16.875" r="2.52" fill="#e74c3c" stroke="none"/>
  <circle cx="60" cy="0" r="2.52" fill="#e74c3c" stroke="none"/>
  <circle cx="90" cy="0" r="2.52" fill="#e74c3c" stroke="none"/>
  <circle cx="94.609375" cy="-13.53515625" r="2.52" fill="#e74c3c" stroke="none"/>
  <circle cx="100.625" cy="-15.46875" r="2.52" fill="#e74c3c" stroke="none"/>
  <circle cx="115" cy="0" r="2.52" fill="#e74c3c" stroke="none"/>
  <circle cx="129.375" cy="15.46875" r="2.52" fill="#e74c3c" stroke="none"/>
  <circle cx="135.390625" cy="13.53515625" r="2.52" fill="#e74c3c" stroke="none"/>
  <circle cx="140" cy="0" r="2.52" fill="#e74c3c" stroke="none"/>
  <circle cx="170" cy="0" r="2.52" fill="#e74c3c" stroke="none"/>
  <circle cx="177.5" cy="7.5" r="2.52" fill="#e74c3c" stroke="none"/>
  <circle cx="185" cy="10" r="2.52" fill="#e74c3c" stroke="none"/>
  <circle cx="192.5" cy="7.5" r="2.52" fill="#e74c3c" stroke="none"/>
  <circle cx="200" cy="0" r="2.52" fill="#e74c3c" stroke="none"/>
  <circle cx="230" cy="0" r="2.52" fill="#e74c3c" stroke="none"/>
  <circle cx="234.1796875" cy="-4.4296875" r="2.52" fill="#e74c3c" stroke="none"/>
  <circle cx="239.0625" cy="-5.0625" r="2.52" fill="#e74c3c" stroke="none"/>
  <circle cx="250" cy="0" r="2.52" fill="#e74c3c" stroke="none"/>
  <circle cx="260.9375" cy="5.0625" r="2.52" fill="#e74c3c" stroke="none"/>
  <circle cx="265.8203125" cy="4.4296875" r="2.52" fill="#e74c3c" stroke="none"/>
  <circle cx="270" cy="0" r="2.52" fill="#e74c3c" stroke="none"/>
  <circle cx="0.000" cy="0.000" r="7.200" fill="#ffffff" stroke="#000000" stroke-width="1.800"/>
  <circle cx="300.000" cy="0.000" r="7.200" fill="#ffffff" stroke="#000000" stroke-width="1.800"/>
</svg>
