<?xml version="1.0" ?>
<svg xmlns="http://www.w3.org/2000/svg" version="1.1" width="200.0" height="200.0" viewBox="-50.0 -50.0 200.0 200.0">
  <g class="grid">
    <line stroke-width="0.5" x1="0.0" y1="-50.0" x2="0.0" y2="150.0" stroke="#ddd"/>
    <line stroke-width="0.5" x1="50.0" y1="-50.0" x2="50.0" y2="150.0" stroke="#ddd"/>
    <line stroke-width="0.5" x1="100.0" y1="-50.0" x2="100.0" y2="150.0" stroke="#ddd"/>
    <line stroke-width="0.5" x1="-50.0" y1="0.0" x2="150.0" y2="0.0" stroke="#ddd"/>
    <line stroke-width="0.5" x1="-50.0" y1="50.0" x2="150.0" y2="50.0" stroke="#ddd"/>
    <line stroke-width="0.5" x1="-50.0" y1="100.0" x2="150.0" y2="100.0" stroke="#ddd"/>
  </g>
  <path stroke-width="2.0" d="M0,0 L50,0" fill="none" stroke="black"/>
  <path stroke-width="2.0" d="M0,0 L0,50" fill="none" stroke="black"/>
  <path stroke-width="2.0" d="M0,50 L50,50" fill="none" stroke="black"/>
  <path stroke-width="2.0" d="M0,50 L0,100" fill="none" stroke="black"/>
  <path stroke-width="2.0" d="M0,100 L50,100" fill="none" stroke="black"/>
  <path stroke-width="2.0" d="M50,0 L100,0" fill="none" stroke="black"/>
  <path stroke-width="2.0" d="M50,0 L50,50" fill="none" stroke="black"/>
  <path stroke-width="2.0" d="M50,50 L100,50" fill="none" stroke="black"/>
  <path stroke-width="2.0" d="M50,50 L50,100" fill="none" stroke="black"/>
  <path stroke-width="2.0" d="M50,100 L100,100" fill="none" stroke="black"/>
  <path stroke-width="2.0" d="M100,0 L100,50" fill="none" stroke="black"/>
  <path stroke-width="2.0" d="M100,50 L100,100" fill="none" stroke="black"/>
  <ellipse stroke-width="2.0" cx="0.0" cy="0.0" rx="10.0" ry="10.0" fill="#FFFFFF" stroke="black" id="n0_0"/>
  <ellipse stroke-width="2.0" cx="0.0" cy="50.0" rx="10.0" ry="10.0" fill="#FFFFFF" stroke="black" id="n0_1"/>
  <ellipse stroke-width="2.0" cx="0.0" cy="100.0" rx="10.0" ry="10.0" fill="#FFFFFF" stroke="black" id="n0_2"/>
  <ellipse stroke-width="2.0" cx="50.0" cy="0.0" rx="10.0" ry="10.0" fill="#FFFFFF" stroke="black" id="n1_0"/>
  <ellipse stroke-width="2.0" cx="50.0" cy="50.0" rx="10.0" ry="10.0" fill="#FFFFFF" stroke="black" id="n1_1"/>
  <ellipse stroke-width="2.0" cx="50.0" cy="100.0" rx="10.0" ry="10.0" fill="#FFFFFF" stroke="black" id="n1_2"/>
  <ellipse stroke-width="2.0" cx="100.0" cy="0.0" rx="10.0" ry="10.0" fill="#FFFFFF" stroke="black" id="n2_0"/>
  <ellipse stroke-width="2.0" cx="100.0" cy="50.0" rx="10.0" ry="10.0" fill="#FFFFFF" stroke="black" id="n2_1"/>
  <ellipse stroke-width="2.0" cx="100.0" cy="100.0" rx="10.0" ry="10.0" fill="#FFFFFF" stroke="black" id="n2_2"/>
</svg>
