<?xml version="1.0" ?>
<svg xmlns="http://www.w3.org/2000/svg" version="1.1" width="800.0" height="800.0" viewBox="-50.0 -50.0 800.0 800.0">
  <g class="grid">
    <line stroke-width="0.5" x1="0.0" y1="-50.0" x2="0.0" y2="750.0" stroke="#ddd"/>
    <line stroke-width="0.5" x1="350.0" y1="-50.0" x2="350.0" y2="750.0" stroke="#ddd"/>
    <line stroke-width="0.5" x1="700.0" y1="-50.0" x2="700.0" y2="750.0" stroke="#ddd"/>
    <line stroke-width="0.5" x1="-50.0" y1="0.0" x2="750.0" y2="0.0" stroke="#ddd"/>
    <line stroke-width="0.5" x1="-50.0" y1="350.0" x2="750.0" y2="350.0" stroke="#ddd"/>
    <line stroke-width="0.5" x1="-50.0" y1="700.0" x2="750.0" y2="700.0" stroke="#ddd"/>
  </g>
  <path stroke-width="2.0" d="M0,0 L350,0" fill="none" stroke="black"/>
  <path stroke-width="2.0" d="M0,0 L0,350" fill="none" stroke="black"/>
  <path stroke-width="2.0" d="M0,350 L350,350" fill="none" stroke="black"/>
  <path stroke-width="2.0" d="M0,350 L0,700" fill="none" stroke="black"/>
  <path stroke-width="2.0" d="M0,700 L350,700" fill="none" stroke="black"/>
  <path stroke-width="2.0" d="M350,0 L700,0" fill="none" stroke="black"/>
  <path stroke-width="2.0" d="M350,0 L350,350" fill="none" stroke="black"/>
  <path stroke-width="2.0" d="M350,350 L700,350" fill="none" stroke="black"/>
  <path stroke-width="2.0" d="M350,350 L350,700" fill="none" stroke="black"/>
  <path stroke-width="2.0" d="M350,700 L700,700" fill="none" stroke="black"/>
  <path stroke-width="2.0" d="M700,0 L700,350" fill="none" stroke="black"/>
  <path stroke-width="2.0" d="M700,350 L700,700" fill="none" stroke="black"/>
  <ellipse stroke-width="2.0" cx="0.0" cy="0.0" rx="10.0" ry="10.0" fill="#FFFFFF" stroke="black" id="n0_0"/>
  <ellipse stroke-width="2.0" cx="0.0" cy="350.0" rx="10.0" ry="10.0" fill="#FFFFFF" stroke="black" id="n0_1"/>
  <ellipse stroke-width="2.0" cx="0.0" cy="700.0" rx="10.0" ry="10.0" fill="#FFFFFF" stroke="black" id="n0_2"/>
  <ellipse stroke-width="2.0" cx="350.0" cy="0.0" rx="10.0" ry="10.0" fill="#FFFFFF" stroke="black" id="n1_0"/>
  <ellipse stroke-width="2.0" cx="350.0" cy="350.0" rx="10.0" ry="10.0" fill="#FFFFFF" stroke="black" id="n1_1"/>
  <ellipse stroke-width="2.0" cx="350.0" cy="700.0" rx="10.0" ry="10.0" fill="#FFFFFF" stroke="black" id="n1_2"/>
  <ellipse stroke-width="2.0" cx="700.0" cy="0.0" rx="10.0" ry="10.0" fill="#FFFFFF" stroke="black" id="n2_0"/>
  <ellipse stroke-width="2.0" cx="700.0" cy="350.0" rx="10.0" ry="10.0" fill="#FFFFFF" stroke="black" id="n2_1"/>
  <ellipse stroke-width="2.0" cx="700.0" cy="700.0" rx="10.0" ry="10.0" fill="#FFFFFF" stroke="black" id="n2_2"/>
</svg>
