<?xml version="1.0" encoding="UTF-8"?>
<svg xmlns="http://www.w3.org/2000/svg" version="1.1" width="1200.000" height="600.000" viewBox="0 0 1200.000 600.000">
  <text x="10" y="35.10" font-family="monospace" font-size="27.00" fill="#555555">SAMPLED — canvas 1200px  (26 pts, tol=0.005)</text>
  <path d="M300.000,300.000 L360.000,300.000 L375.000,266.250 L390.000,255.000 L405.000,266.250 L420.000,300.000 L480.000,300.000 L489.219,272.930 L501.250,269.062 L530.000,300.000 L558.750,330.938 L570.781,327.070 L580.000,300.000 L640.000,300.000 L655.000,315.000 L670.000,320.000 L685.000,315.000 L700.000,300.000 L760.000,300.000 L768.359,291.141 L778.125,289.875 L800.000,300.000 L821.875,310.125 L831.641,308.859 L840.000,300.000 L900.000,300.000" fill="none" stroke="#555555" stroke-width="5.760"/>
  <circle cx="360.000" cy="300.000" r="5.040" fill="#e74c3c" stroke="none"/>
  <circle cx="375.000" cy="266.250" r="5.040" fill="#e74c3c" stroke="none"/>
  <circle cx="390.000" cy="255.000" r="5.040" fill="#e74c3c" stroke="none"/>
  <circle cx="405.000" cy="266.250" r="5.040" fill="#e74c3c" stroke="none"/>
  <circle cx="420.000" cy="300.000" r="5.040" fill="#e74c3c" stroke="none"/>
  <circle cx="480.000" cy="300.000" r="5.040" fill="#e74c3c" stroke="none"/>
  <circle cx="489.219" cy="272.930" r="5.040" fill="#e74c3c" stroke="none"/>
  <circle cx="501.250" cy="269.062" r="5.040" fill="#e74c3c" stroke="none"/>
  <circle cx="530.000" cy="300.000" r="5.040" fill="#e74c3c" stroke="none"/>
  <circle cx="558.750" cy="330.938" r="5.040" fill="#e74c3c" stroke="none"/>
  <circle cx="570.781" cy="327.070" r="5.040" fill="#e74c3c" stroke="none"/>
  <circle cx="580.000" cy="300.000" r="5.040" fill="#e74c3c" stroke="none"/>
  <circle cx="640.000" cy="300.000" r="5.040" fill="#e74c3c" stroke="none"/>
  <circle cx="655.000" cy="315.000" r="5.040" fill="#e74c3c" stroke="none"/>
  <circle cx="670.000" cy="320.000" r="5.040" fill="#e74c3c" stroke="none"/>
  <circle cx="685.000" cy="315.000" r="5.040" fill="#e74c3c" stroke="none"/>
  <circle cx="700.000" cy="300.000" r="5.040" fill="#e74c3c" stroke="none"/>
  <circle cx="760.000" cy="300.000" r="5.040" fill="#e74c3c" stroke="none"/>
  <circle cx="768.359" cy="291.141" r="5.040" fill="#e74c3c" stroke="none"/>
  <circle cx="778.125" cy="289.875" r="5.040" fill="#e74c3c" stroke="none"/>
  <circle cx="800.000" cy="300.000" r="5.040" fill="#e74c3c" stroke="none"/>
  <circle cx="821.875" cy="310.125" r="5.040" fill="#e74c3c" stroke="none"/>
  <circle cx="831.641" cy="308.859" r="5.040" fill="#e74c3c" stroke="none"/>
  <circle cx="840.000" cy="300.000" r="5.040" fill="#e74c3c" stroke="none"/>
  <circle cx="300.000" cy="300.000" r="14.400" fill="#ffffff" stroke="#000000" stroke-width="3.600"/>
  <circle cx="900.000" cy="300.000" r="14.400" fill="#ffffff" stroke="#000000" stroke-width="3.600"/>
</svg>
